PathFileType	4	(X/Y/Z)	C:\Users\WrightLab\Desktop\Jo\P5V114.trc
DataRate	CameraRate	NumFrames	NumMarkers	Units	OrigDataRate	OrigDataStartFrame	OrigNumFrames
100.00	100.00	      16	19	mm	100.00	523	      1045
Frame#	Time	Headset_Front			Headset_Back			Headset_Left			Headset_Right			Left_Shoulder			Right_Shoulder			Sternum			C7			Left Elbow			Right Elbow			Left Wrist			Right Wrist			Left ASIS			Right ASIS			S2			Left Knee			Right Knee			Left Ankle			Right Ankle			
		X1	Y1	Z1	X2	Y2	Z2	X3	Y3	Z3	X4	Y4	Z4	X5	Y5	Z5	X6	Y6	Z6	X7	Y7	Z7	X8	Y8	Z8	X9	Y9	Z9	X10	Y10	Z10	X11	Y11	Z11	X12	Y12	Z12	X13	Y13	Z13	X14	Y14	Z14	X15	Y15	Z15	X16	Y16	Z16	X17	Y17	Z17	X18	Y18	Z18	X19	Y19	Z19	

523	5.220										-485.34125	1608.58459	850.05774	-851.57434	1515.58130	779.56708	-538.93988	1470.97388	1045.97034	-631.77216	1339.88647	847.59387	-766.61877	1548.13770	1006.76855	-959.54028	1262.71326	730.37445	-537.81873	1216.84680	1187.47595	-809.01831	1222.82007	577.83032	-407.86096	1105.08728	1016.72156	-747.44305	946.30780	758.88141	-535.06104	963.90796	952.74701	-870.85205	1000.79205	1026.19592	-817.33405	520.96924	767.95471	-472.91168	580.47430	815.57373	-912.98102	114.41779	967.19330	-619.49188	174.40379	921.14642	
524	5.230										-482.07034	1608.40381	844.50708	-847.37347	1515.15991	773.10077	-536.26038	1470.43481	1041.92542	-628.30908	1339.75024	842.98981	-764.43634	1547.97083	1001.04517	-955.31403	1262.78992	722.30402	-536.85974	1216.26941	1184.28101	-803.87646	1223.02100	570.48773	-405.82495	1104.44287	1013.91113	-743.47437	946.11200	754.36078	-532.87775	963.22369	947.99121	-869.95673	1000.90106	1020.52502	-814.64063	519.74408	768.37714	-470.21451	579.84619	814.16809	-912.84143	114.83508	966.56897	-611.26270	167.73219	904.17566	
525	5.240										-479.39905	1607.09045	839.38440	-843.14166	1514.83350	766.81732	-534.52698	1469.04004	1038.26953	-624.69055	1340.35120	838.31226	-761.90729	1547.72754	995.30182	-950.82251	1262.73730	714.39392	-536.72961	1216.25842	1179.90662	-798.09015	1222.97327	562.51697	-404.11252	1103.88892	1011.44592	-738.90918	945.36151	750.76489	-530.87476	962.74310	946.34943	-868.59247	1001.18549	1014.92731	-811.40332	518.37646	769.81683	-468.17444	578.76996	812.60425	-912.90845	115.61690	965.61707	-600.09406	161.35146	888.09576	
526	5.250										-475.53448	1607.04431	835.53870	-838.71417	1514.28406	760.60291	-532.30475	1470.33191	1035.70032	-621.07996	1339.31921	835.64709	-759.05756	1547.47595	989.67786	-946.30389	1262.43970	706.53271	-536.54041	1215.84631	1175.92432	-792.76080	1223.34949	555.37708	-402.04327	1104.42700	1008.42719	-734.33752	945.19043	745.07819	-528.56476	962.82251	942.96484	-866.53833	1000.90851	1009.23639	-807.70929	515.99066	770.28131	-466.27637	577.96576	811.20276	-912.80750	115.81683	965.48187	-588.70245	155.28201	874.04462	
527	5.260				-504.88455	1534.45239	705.32983				-472.17380	1607.20911	831.94305	-834.14734	1513.81921	754.59570	-530.44269	1470.57837	1030.66394	-617.47418	1338.75671	830.67126	-756.72174	1547.33936	984.29657	-941.78400	1262.60461	699.26385	-534.89923	1215.55225	1173.05249	-787.68030	1223.48376	548.50470	-400.01941	1103.91736	1005.34692	-730.30865	944.50092	742.65552	-526.30402	962.16229	939.69733	-864.07312	1000.54193	1003.54193	-804.70197	515.99310	770.71521	-465.30005	576.35699	809.28662	-912.62531	116.69711	964.18530	-575.90948	149.88567	860.77167	
528	5.270	-626.19617	1777.12134	855.80829	-501.55383	1533.30249	700.99396				-469.64758	1605.94226	826.83539	-829.68280	1513.46814	748.71857	-527.11688	1470.13965	1028.82825	-613.73969	1337.92773	826.81531	-754.09503	1547.20752	979.06805	-937.34399	1262.85718	692.07312	-533.73126	1214.61914	1168.64575	-782.43164	1224.08301	541.83569	-397.92590	1103.26050	1001.46143	-726.11108	944.73187	736.51752	-523.87048	961.39685	936.21106	-861.90588	1000.70135	998.02966	-801.50568	516.13934	773.91327	-464.34125	574.46747	808.18677	-912.55896	117.03689	964.04895	-566.15161	145.45148	848.35962	
529	5.280	-622.67853	1776.95300	850.87000	-498.06912	1532.15686	696.18274							-825.07220	1512.93958	742.90747	-525.22070	1468.84192	1022.41882	-609.86450	1337.09619	822.92181	-750.90137	1546.75781	973.80176	-931.95465	1261.75476	685.04999	-532.12408	1213.93042	1164.67712	-777.22064	1224.41125	535.31769	-395.93561	1103.09082	998.63293	-721.74310	943.45215	734.23291	-521.61615	960.99139	931.62097	-859.44751	1000.33191	992.60321	-797.25409	514.61713	774.17261	-463.67172	572.18115	806.79675	-912.51538	117.31864	963.93396	-554.78998	140.80865	837.62366	
530	5.290	-619.02081	1776.36206	846.14935	-494.51593	1531.40027	692.17548							-820.40991	1512.56226	737.44250	-521.55487	1468.45227	1020.63452	-605.91467	1337.03064	818.61316	-747.11609	1546.12512	968.59985	-926.48639	1261.10681	678.47778	-530.91443	1213.36230	1161.00500	-771.87756	1224.46545	528.99921	-393.52753	1102.55969	994.62659	-717.09729	943.51843	728.91138	-519.15186	960.65784	927.18982	-857.28461	1000.53033	987.37927	-793.62738	514.21924	775.02142	-463.41031	569.82544	804.30670	-912.37714	118.14465	962.97021	-543.53137	138.92192	827.61261	
531	5.300	-615.16833	1776.00098	841.39246	-491.11786	1530.38074	687.30774							-815.66272	1512.22498	731.98578	-518.44568	1467.82837	1016.65912	-602.05811	1335.48389	815.15558	-744.65295	1546.01343	963.89868	-923.03345	1262.83325	671.39435	-528.39972	1213.10889	1156.89392	-766.46222	1224.99536	522.29626	-390.73889	1102.31250	992.12689	-712.95251	942.37457	725.20813	-516.19067	960.34229	924.25769	-854.54266	1000.44318	982.19324	-789.57318	513.86786	776.00616	-463.30325	567.42023	802.53296	-912.26147	118.46709	963.21405	-533.70569	135.68387	818.34680	
532	5.310	-610.95282	1775.69690	836.63000	-487.78143	1529.35950	682.16388							-810.86920	1511.87024	726.78223	-516.05176	1466.39612	1012.64270	-597.84460	1336.17664	810.38226	-740.80505	1545.53601	959.09058	-918.38702	1262.59277	664.79791	-526.46313	1211.89661	1153.24573	-761.32269	1225.62573	516.24017	-387.89429	1101.88086	987.66425	-708.94513	942.07880	721.80054	-513.28650	959.65558	919.15375	-850.56238	999.41034	976.96802	-785.20984	512.78259	776.13062	-463.13904	565.81824	799.70544	-911.76703	119.32201	962.23163	-524.21735	133.59657	810.63373	
533	5.320	-606.51337	1775.19067	831.93530	-484.37598	1528.00732	679.21185							-806.04053	1511.66113	721.79315	-512.78632	1466.77734	1008.55951	-593.66724	1335.96765	805.63153	-737.38733	1545.21741	954.49213	-913.45624	1262.90613	658.66595	-524.04553	1212.05750	1149.64172	-756.10950	1226.02576	510.23721	-385.15698	1101.27417	985.02643	-704.26794	941.88007	716.02588	-509.82501	959.04352	912.99719	-847.84821	999.47101	972.21552	-781.37390	512.10339	777.21558	-462.12982	564.63922	796.77252	-911.49054	119.69942	962.51166	-516.01501	131.45419	803.15149	
534	5.330	-602.69489	1774.74939	827.63116	-480.97208	1527.12061	674.45850							-801.26099	1511.66504	717.00427	-508.88605	1466.26135	1005.19006	-589.55585	1335.06030	801.44977	-733.94836	1544.88647	950.15771	-908.19769	1262.63464	652.36584	-521.35815	1210.97192	1145.67029	-750.90588	1226.69202	504.31589	-382.08948	1100.87170	981.08630	-700.53363	942.34637	713.05902	-506.19403	959.02924	910.34497	-844.49872	999.49011	967.59894	-777.44360	511.05032	777.45667	-461.82120	562.14685	793.99683	-910.87000	121.05539	960.72626	-511.05484	131.20531	798.36823	
535	5.340	-598.00116	1774.43835	823.00787	-477.67874	1525.54834	670.05475							-796.49249	1511.69470	712.31708	-505.28549	1466.94751	1002.10077	-585.19000	1335.37549	797.76263	-729.44092	1544.13696	945.68604	-903.34650	1263.12964	646.66046	-518.59729	1210.71643	1140.97144	-745.85693	1227.39807	498.44073	-378.96786	1099.82019	977.85468	-696.39337	941.49097	708.27747	-502.48441	958.42749	903.90594	-840.05316	998.58234	962.80951	-773.01288	510.82776	775.35364	-459.73474	560.95538	791.05414	-910.50201	121.72682	960.77850	-505.53867	128.73306	794.39087	
536	5.350	-592.86688	1773.89978	818.50153	-474.18109	1524.52954	666.17883							-791.77148	1511.63342	707.79449	-501.87186	1465.04602	998.08087	-581.06842	1334.53906	791.46082	-726.49695	1544.05176	941.70001	-898.25165	1263.41345	640.75446	-515.52319	1210.10413	1138.13794	-740.86041	1227.89429	492.38315	-375.27356	1099.62329	974.87451	-692.41101	942.10913	704.22638	-498.72781	958.49933	897.85596	-836.65802	998.66437	958.32520	-768.95093	511.23853	774.03009	-457.92990	559.16223	788.55286	-909.94043	123.06484	958.92773	-503.41141	125.17371	790.80310	
537	5.360	-588.91974	1773.53577	814.46936	-470.66763	1523.65942	661.73816							-787.15424	1511.56946	703.41064	-498.61761	1464.80994	993.82404	-576.58112	1334.06323	789.93121	-721.68469	1543.22607	937.40308	-893.44684	1264.04321	635.39423	-511.79559	1209.28699	1134.36487	-735.99963	1228.83923	486.84491	-372.39438	1098.84021	970.52423	-688.30981	941.98535	698.86066	-494.22675	958.04858	894.31567	-831.81085	998.25208	953.63629	-764.38055	510.58789	769.39313	-456.23984	557.53949	784.48389	-909.34113	124.24735	957.98700	-498.90253	124.85335	790.42212	
538	5.370	-583.51984	1773.17981	810.09583	-467.31671	1521.82300	658.41229							-782.68811	1511.57544	699.21118	-494.90335	1464.66956	992.05255	-572.17029	1334.28821	784.64569				-888.51019	1264.10681	629.62683	-509.07678	1208.26575	1129.40759	-730.96130	1229.97437	481.20398	-368.51440	1098.29736	967.29077	-683.60394	941.65887	694.64325	-489.50992	957.96985	888.11890	-827.68616	998.00586	949.18610	-760.62189	510.65643	766.07855	-453.90384	555.70471	782.78131	-909.14685	125.46653	958.04547	-498.24252	123.36069	789.89709	
